REM DIRINDEX 1\2,1\3
REM DIRNAME cjc133,folder01,folder02
TITLE ""
FILE "DISC1Track08.mp3" MP3
  TRACK 01 AUDIO
    TITLE "0:"
    INDEX 01 00:00:00
  TRACK 02 AUDIO
    TITLE "3:cjc133_0324"
    INDEX 01 00:00:15
  TRACK 03 AUDIO
    TITLE "0:"
    INDEX 01 00:01:11
  TRACK 04 AUDIO
    TITLE "2:cjc133_0325"
    INDEX 01 00:01:60
  TRACK 05 AUDIO
    TITLE "2:cjc133_0326"
    INDEX 01 00:04:56
  TRACK 06 AUDIO
    TITLE "2:cjc133_0327"
    INDEX 01 00:07:27
  TRACK 07 AUDIO
    TITLE "0:"
    INDEX 01 00:09:00
  TRACK 08 AUDIO
    TITLE "2:cjc133_0328"
    INDEX 01 00:09:53
  TRACK 09 AUDIO
    TITLE "2:cjc133_0329"
    INDEX 01 00:10:63
  TRACK 10 AUDIO
    TITLE "2:cjc133_0330"
    INDEX 01 00:13:33
  TRACK 11 AUDIO
    TITLE "0:"
    INDEX 01 00:15:19
  TRACK 12 AUDIO
    TITLE "2:cjc133_0331"
    INDEX 01 00:15:70
  TRACK 13 AUDIO
    TITLE "2:cjc133_0332"
    INDEX 01 00:18:35
  TRACK 14 AUDIO
    TITLE "2:cjc133_0333"
    INDEX 01 00:21:13
  TRACK 15 AUDIO
    TITLE "0:"
    INDEX 01 00:22:70
  TRACK 16 AUDIO
    TITLE "2:cjc133_0334"
    INDEX 01 00:23:46
  TRACK 17 AUDIO
    TITLE "2:cjc133_0335"
    INDEX 01 00:24:69
  TRACK 18 AUDIO
    TITLE "2:cjc133_0336"
    INDEX 01 00:27:43
  TRACK 19 AUDIO
    TITLE "0:"
    INDEX 01 00:29:23
  TRACK 20 AUDIO
    TITLE "2:cjc133_0337"
    INDEX 01 00:29:74
  TRACK 21 AUDIO
    TITLE "2:cjc133_0338"
    INDEX 01 00:32:01
  TRACK 22 AUDIO
    TITLE "2:cjc133_0339"
    INDEX 01 00:34:61
  TRACK 23 AUDIO
    TITLE "0:"
    INDEX 01 00:36:52
  TRACK 24 AUDIO
    TITLE "2:cjc133_0340"
    INDEX 01 00:37:28
  TRACK 25 AUDIO
    TITLE "2:cjc133_0341"
    INDEX 01 00:39:52
  TRACK 26 AUDIO
    TITLE "2:cjc133_0342"
    INDEX 01 00:42:29
  TRACK 27 AUDIO
    TITLE "0:"
    INDEX 01 00:44:22
  TRACK 28 AUDIO
    TITLE "2:cjc133_0343"
    INDEX 01 00:44:71
  TRACK 29 AUDIO
    TITLE "2:cjc133_0344"
    INDEX 01 00:47:52
  TRACK 30 AUDIO
    TITLE "2:cjc133_0345"
    INDEX 01 00:50:33
  TRACK 31 AUDIO
    TITLE "0:"
    INDEX 01 00:52:20
  TRACK 32 AUDIO
    TITLE "2:cjc133_0346"
    INDEX 01 00:53:00
  TRACK 33 AUDIO
    TITLE "2:cjc133_0347"
    INDEX 01 00:55:12
  TRACK 34 AUDIO
    TITLE "2:cjc133_0348"
    INDEX 01 00:58:01
  TRACK 35 AUDIO
    TITLE "0:"
    INDEX 01 01:00:02
  TRACK 36 AUDIO
    TITLE "2:cjc133_0349"
    INDEX 01 01:00:49
  TRACK 37 AUDIO
    TITLE "2:cjc133_0350"
    INDEX 01 01:03:16
  TRACK 38 AUDIO
    TITLE "2:cjc133_0351"
    INDEX 01 01:06:08
  TRACK 39 AUDIO
    TITLE "0:"
    INDEX 01 01:08:05
  TRACK 40 AUDIO
    TITLE "2:cjc133_0352"
    INDEX 01 01:08:58
  TRACK 41 AUDIO
    TITLE "2:cjc133_0353"
    INDEX 01 01:11:51
  TRACK 42 AUDIO
    TITLE "2:cjc133_0354"
    INDEX 01 01:14:41
  TRACK 43 AUDIO
    TITLE "0:"
    INDEX 01 01:16:36
  TRACK 44 AUDIO
    TITLE "2:cjc133_0355"
    INDEX 01 01:17:14
  TRACK 45 AUDIO
    TITLE "2:cjc133_0356"
    INDEX 01 01:19:52
  TRACK 46 AUDIO
    TITLE "2:cjc133_0357"
    INDEX 01 01:22:37
  TRACK 47 AUDIO
    TITLE "0:"
    INDEX 01 01:24:36
  TRACK 48 AUDIO
    TITLE "2:cjc133_0358"
    INDEX 01 01:25:13
  TRACK 49 AUDIO
    TITLE "2:cjc133_0359"
    INDEX 01 01:28:16
  TRACK 50 AUDIO
    TITLE "2:cjc133_0360"
    INDEX 01 01:31:06
  TRACK 51 AUDIO
    TITLE "0:"
    INDEX 01 01:33:07
  TRACK 52 AUDIO
    TITLE "2:cjc133_0361"
    INDEX 01 01:33:58
  TRACK 53 AUDIO
    TITLE "2:cjc133_0362"
    INDEX 01 01:36:15
  TRACK 54 AUDIO
    TITLE "2:cjc133_0363"
    INDEX 01 01:38:65
  TRACK 55 AUDIO
    TITLE "0:"
    INDEX 01 01:40:52
  TRACK 56 AUDIO
    TITLE "2:cjc133_0364"
    INDEX 01 01:41:26
  TRACK 57 AUDIO
    TITLE "2:cjc133_0365"
    INDEX 01 01:43:09
  TRACK 58 AUDIO
    TITLE "2:cjc133_0366"
    INDEX 01 01:45:69
  TRACK 59 AUDIO
    TITLE "0:"
    INDEX 01 01:47:56
  TRACK 60 AUDIO
    TITLE "2:cjc133_0367"
    INDEX 01 01:48:36
  TRACK 61 AUDIO
    TITLE "2:cjc133_0368"
    INDEX 01 01:51:13
  TRACK 62 AUDIO
    TITLE "2:cjc133_0369"
    INDEX 01 01:53:57
  TRACK 63 AUDIO
    TITLE "0:"
    INDEX 01 01:55:46
